<mxfile host="www.draw.io" modified="2020-01-06T08:17:05.828Z" agent="Mozilla/5.0 (Windows NT 10.0; Win64; x64) AppleWebKit/537.36 (KHTML, like Gecko) Chrome/79.0.3945.88 Safari/537.36" etag="M3LL2ZmiisLYsXtPdVi3" version="12.4.8" type="github">
  <diagram id="oLw4HaNUu8U8rWGGEuYg" name="Page-1">
    <mxGraphModel dx="868" dy="450" grid="1" gridSize="10" guides="1" tooltips="1" connect="1" arrows="1" fold="1" page="1" pageScale="1" pageWidth="827" pageHeight="1169" math="0" shadow="0">
      <root>
        <mxCell id="0"/>
        <mxCell id="1" parent="0"/>
        <mxCell id="x8dnCS3WgVs4PBsWVb6L-86" value="Private2" style="points=[[0,0],[0.25,0],[0.5,0],[0.75,0],[1,0],[1,0.25],[1,0.5],[1,0.75],[1,1],[0.75,1],[0.5,1],[0.25,1],[0,1],[0,0.75],[0,0.5],[0,0.25]];outlineConnect=0;gradientColor=none;html=1;whiteSpace=wrap;fontSize=12;fontStyle=0;shape=mxgraph.aws4.group;grIcon=mxgraph.aws4.group_security_group;grStroke=0;strokeColor=#147EBA;fillColor=#E6F2F8;verticalAlign=top;align=left;spacingLeft=30;fontColor=#147EBA;dashed=0;" vertex="1" parent="1">
          <mxGeometry x="430" y="545" width="130" height="130" as="geometry"/>
        </mxCell>
        <mxCell id="x8dnCS3WgVs4PBsWVb6L-85" value="Private1" style="points=[[0,0],[0.25,0],[0.5,0],[0.75,0],[1,0],[1,0.25],[1,0.5],[1,0.75],[1,1],[0.75,1],[0.5,1],[0.25,1],[0,1],[0,0.75],[0,0.5],[0,0.25]];outlineConnect=0;gradientColor=none;html=1;whiteSpace=wrap;fontSize=12;fontStyle=0;shape=mxgraph.aws4.group;grIcon=mxgraph.aws4.group_security_group;grStroke=0;strokeColor=#147EBA;fillColor=#E6F2F8;verticalAlign=top;align=left;spacingLeft=30;fontColor=#147EBA;dashed=0;" vertex="1" parent="1">
          <mxGeometry x="240" y="545" width="130" height="130" as="geometry"/>
        </mxCell>
        <mxCell id="x8dnCS3WgVs4PBsWVb6L-91" value="Auto Scaling group" style="points=[[0,0],[0.25,0],[0.5,0],[0.75,0],[1,0],[1,0.25],[1,0.5],[1,0.75],[1,1],[0.75,1],[0.5,1],[0.25,1],[0,1],[0,0.75],[0,0.5],[0,0.25]];outlineConnect=0;gradientColor=none;html=1;whiteSpace=wrap;fontSize=12;fontStyle=0;shape=mxgraph.aws4.groupCenter;grIcon=mxgraph.aws4.group_auto_scaling_group;grStroke=1;strokeColor=#D86613;fillColor=none;verticalAlign=top;align=center;fontColor=#D86613;dashed=1;spacingTop=25;" vertex="1" parent="1">
          <mxGeometry x="240" y="545" width="320" height="130" as="geometry"/>
        </mxCell>
        <mxCell id="x8dnCS3WgVs4PBsWVb6L-88" value="Private4" style="points=[[0,0],[0.25,0],[0.5,0],[0.75,0],[1,0],[1,0.25],[1,0.5],[1,0.75],[1,1],[0.75,1],[0.5,1],[0.25,1],[0,1],[0,0.75],[0,0.5],[0,0.25]];outlineConnect=0;gradientColor=none;html=1;whiteSpace=wrap;fontSize=12;fontStyle=0;shape=mxgraph.aws4.group;grIcon=mxgraph.aws4.group_security_group;grStroke=0;strokeColor=#147EBA;fillColor=#E6F2F8;verticalAlign=top;align=left;spacingLeft=30;fontColor=#147EBA;dashed=0;" vertex="1" parent="1">
          <mxGeometry x="430" y="750" width="130" height="130" as="geometry"/>
        </mxCell>
        <mxCell id="x8dnCS3WgVs4PBsWVb6L-87" value="Private3" style="points=[[0,0],[0.25,0],[0.5,0],[0.75,0],[1,0],[1,0.25],[1,0.5],[1,0.75],[1,1],[0.75,1],[0.5,1],[0.25,1],[0,1],[0,0.75],[0,0.5],[0,0.25]];outlineConnect=0;gradientColor=none;html=1;whiteSpace=wrap;fontSize=12;fontStyle=0;shape=mxgraph.aws4.group;grIcon=mxgraph.aws4.group_security_group;grStroke=0;strokeColor=#147EBA;fillColor=#E6F2F8;verticalAlign=top;align=left;spacingLeft=30;fontColor=#147EBA;dashed=0;" vertex="1" parent="1">
          <mxGeometry x="240" y="750" width="130" height="130" as="geometry"/>
        </mxCell>
        <mxCell id="x8dnCS3WgVs4PBsWVb6L-92" value="Auto Scaling group" style="points=[[0,0],[0.25,0],[0.5,0],[0.75,0],[1,0],[1,0.25],[1,0.5],[1,0.75],[1,1],[0.75,1],[0.5,1],[0.25,1],[0,1],[0,0.75],[0,0.5],[0,0.25]];outlineConnect=0;gradientColor=none;html=1;whiteSpace=wrap;fontSize=12;fontStyle=0;shape=mxgraph.aws4.groupCenter;grIcon=mxgraph.aws4.group_auto_scaling_group;grStroke=1;strokeColor=#D86613;fillColor=none;verticalAlign=top;align=center;fontColor=#D86613;dashed=1;spacingTop=25;" vertex="1" parent="1">
          <mxGeometry x="240" y="750" width="320" height="130" as="geometry"/>
        </mxCell>
        <mxCell id="x8dnCS3WgVs4PBsWVb6L-81" value="AZ" style="fillColor=none;strokeColor=#147EBA;dashed=1;verticalAlign=top;fontStyle=0;fontColor=#147EBA;" vertex="1" parent="1">
          <mxGeometry x="430" y="350" width="130" height="680" as="geometry"/>
        </mxCell>
        <mxCell id="x8dnCS3WgVs4PBsWVb6L-80" value="AZ" style="fillColor=none;strokeColor=#147EBA;dashed=1;verticalAlign=top;fontStyle=0;fontColor=#147EBA;" vertex="1" parent="1">
          <mxGeometry x="240" y="350" width="130" height="680" as="geometry"/>
        </mxCell>
        <mxCell id="x8dnCS3WgVs4PBsWVb6L-79" value="VPC" style="points=[[0,0],[0.25,0],[0.5,0],[0.75,0],[1,0],[1,0.25],[1,0.5],[1,0.75],[1,1],[0.75,1],[0.5,1],[0.25,1],[0,1],[0,0.75],[0,0.5],[0,0.25]];outlineConnect=0;gradientColor=none;html=1;whiteSpace=wrap;fontSize=12;fontStyle=0;shape=mxgraph.aws4.group;grIcon=mxgraph.aws4.group_vpc;strokeColor=#248814;fillColor=none;verticalAlign=top;align=left;spacingLeft=30;fontColor=#AAB7B8;dashed=0;" vertex="1" parent="1">
          <mxGeometry x="200" y="310" width="400" height="730" as="geometry"/>
        </mxCell>
        <mxCell id="x8dnCS3WgVs4PBsWVb6L-77" value="AWS Cloud" style="points=[[0,0],[0.25,0],[0.5,0],[0.75,0],[1,0],[1,0.25],[1,0.5],[1,0.75],[1,1],[0.75,1],[0.5,1],[0.25,1],[0,1],[0,0.75],[0,0.5],[0,0.25]];outlineConnect=0;gradientColor=none;html=1;whiteSpace=wrap;fontSize=12;fontStyle=0;shape=mxgraph.aws4.group;grIcon=mxgraph.aws4.group_aws_cloud;strokeColor=#232F3E;fillColor=none;verticalAlign=top;align=left;spacingLeft=30;fontColor=#232F3E;dashed=0;" vertex="1" parent="1">
          <mxGeometry x="155.5" y="70" width="489" height="1010" as="geometry"/>
        </mxCell>
        <mxCell id="x8dnCS3WgVs4PBsWVb6L-78" value="Region" style="points=[[0,0],[0.25,0],[0.5,0],[0.75,0],[1,0],[1,0.25],[1,0.5],[1,0.75],[1,1],[0.75,1],[0.5,1],[0.25,1],[0,1],[0,0.75],[0,0.5],[0,0.25]];outlineConnect=0;gradientColor=none;html=1;whiteSpace=wrap;fontSize=12;fontStyle=0;shape=mxgraph.aws4.group;grIcon=mxgraph.aws4.group_region;strokeColor=#147EBA;fillColor=none;verticalAlign=top;align=left;spacingLeft=30;fontColor=#147EBA;dashed=0;" vertex="1" parent="1">
          <mxGeometry x="183.5" y="240" width="436.5" height="810" as="geometry"/>
        </mxCell>
        <mxCell id="x8dnCS3WgVs4PBsWVb6L-90" value="Private6" style="points=[[0,0],[0.25,0],[0.5,0],[0.75,0],[1,0],[1,0.25],[1,0.5],[1,0.75],[1,1],[0.75,1],[0.5,1],[0.25,1],[0,1],[0,0.75],[0,0.5],[0,0.25]];outlineConnect=0;gradientColor=none;html=1;whiteSpace=wrap;fontSize=12;fontStyle=0;shape=mxgraph.aws4.group;grIcon=mxgraph.aws4.group_security_group;grStroke=0;strokeColor=#147EBA;fillColor=#E6F2F8;verticalAlign=top;align=left;spacingLeft=30;fontColor=#147EBA;dashed=0;" vertex="1" parent="1">
          <mxGeometry x="430" y="900" width="130" height="130" as="geometry"/>
        </mxCell>
        <mxCell id="x8dnCS3WgVs4PBsWVb6L-89" value="Private5" style="points=[[0,0],[0.25,0],[0.5,0],[0.75,0],[1,0],[1,0.25],[1,0.5],[1,0.75],[1,1],[0.75,1],[0.5,1],[0.25,1],[0,1],[0,0.75],[0,0.5],[0,0.25]];outlineConnect=0;gradientColor=none;html=1;whiteSpace=wrap;fontSize=12;fontStyle=0;shape=mxgraph.aws4.group;grIcon=mxgraph.aws4.group_security_group;grStroke=0;strokeColor=#147EBA;fillColor=#E6F2F8;verticalAlign=top;align=left;spacingLeft=30;fontColor=#147EBA;dashed=0;" vertex="1" parent="1">
          <mxGeometry x="240" y="900" width="130" height="130" as="geometry"/>
        </mxCell>
        <mxCell id="x8dnCS3WgVs4PBsWVb6L-83" value="Public subnet" style="points=[[0,0],[0.25,0],[0.5,0],[0.75,0],[1,0],[1,0.25],[1,0.5],[1,0.75],[1,1],[0.75,1],[0.5,1],[0.25,1],[0,1],[0,0.75],[0,0.5],[0,0.25]];outlineConnect=0;gradientColor=none;html=1;whiteSpace=wrap;fontSize=12;fontStyle=0;shape=mxgraph.aws4.group;grIcon=mxgraph.aws4.group_security_group;grStroke=0;strokeColor=#248814;fillColor=#E9F3E6;verticalAlign=top;align=left;spacingLeft=30;fontColor=#248814;dashed=0;" vertex="1" parent="1">
          <mxGeometry x="240" y="375" width="130" height="130" as="geometry"/>
        </mxCell>
        <mxCell id="x8dnCS3WgVs4PBsWVb6L-29" style="edgeStyle=orthogonalEdgeStyle;rounded=0;orthogonalLoop=1;jettySize=auto;html=1;startArrow=classic;startFill=1;" edge="1" parent="1">
          <mxGeometry relative="1" as="geometry">
            <mxPoint x="400" y="330" as="sourcePoint"/>
            <mxPoint x="400" y="420" as="targetPoint"/>
          </mxGeometry>
        </mxCell>
        <mxCell id="x8dnCS3WgVs4PBsWVb6L-143" style="edgeStyle=orthogonalEdgeStyle;rounded=0;orthogonalLoop=1;jettySize=auto;html=1;startArrow=classic;startFill=1;" edge="1" parent="1" source="x8dnCS3WgVs4PBsWVb6L-45" target="x8dnCS3WgVs4PBsWVb6L-131">
          <mxGeometry relative="1" as="geometry"/>
        </mxCell>
        <mxCell id="x8dnCS3WgVs4PBsWVb6L-45" value="users" style="outlineConnect=0;gradientColor=none;fontColor=#545B64;strokeColor=none;fillColor=#879196;dashed=0;verticalLabelPosition=bottom;verticalAlign=top;align=center;html=1;fontSize=12;fontStyle=0;aspect=fixed;shape=mxgraph.aws4.illustration_users;pointerEvents=1" vertex="1" parent="1">
          <mxGeometry x="381.75" width="40" height="40" as="geometry"/>
        </mxCell>
        <mxCell id="x8dnCS3WgVs4PBsWVb6L-84" value="Public subnet" style="points=[[0,0],[0.25,0],[0.5,0],[0.75,0],[1,0],[1,0.25],[1,0.5],[1,0.75],[1,1],[0.75,1],[0.5,1],[0.25,1],[0,1],[0,0.75],[0,0.5],[0,0.25]];outlineConnect=0;gradientColor=none;html=1;whiteSpace=wrap;fontSize=12;fontStyle=0;shape=mxgraph.aws4.group;grIcon=mxgraph.aws4.group_security_group;grStroke=0;strokeColor=#248814;fillColor=#E9F3E6;verticalAlign=top;align=left;spacingLeft=30;fontColor=#248814;dashed=0;" vertex="1" parent="1">
          <mxGeometry x="430" y="375" width="130" height="130" as="geometry"/>
        </mxCell>
        <mxCell id="x8dnCS3WgVs4PBsWVb6L-114" style="edgeStyle=orthogonalEdgeStyle;rounded=0;orthogonalLoop=1;jettySize=auto;html=1;startArrow=classic;startFill=1;" edge="1" parent="1" source="x8dnCS3WgVs4PBsWVb6L-96" target="x8dnCS3WgVs4PBsWVb6L-102">
          <mxGeometry relative="1" as="geometry">
            <Array as="points">
              <mxPoint x="402" y="520"/>
              <mxPoint x="305" y="520"/>
            </Array>
          </mxGeometry>
        </mxCell>
        <mxCell id="x8dnCS3WgVs4PBsWVb6L-115" style="edgeStyle=orthogonalEdgeStyle;rounded=0;orthogonalLoop=1;jettySize=auto;html=1;startArrow=classic;startFill=1;" edge="1" parent="1" source="x8dnCS3WgVs4PBsWVb6L-96" target="x8dnCS3WgVs4PBsWVb6L-103">
          <mxGeometry relative="1" as="geometry">
            <Array as="points">
              <mxPoint x="402" y="520"/>
              <mxPoint x="494" y="520"/>
            </Array>
          </mxGeometry>
        </mxCell>
        <mxCell id="x8dnCS3WgVs4PBsWVb6L-96" value="ALB&lt;br&gt;" style="outlineConnect=0;fontColor=#232F3E;gradientColor=#F78E04;gradientDirection=north;fillColor=#D05C17;strokeColor=#ffffff;dashed=0;verticalLabelPosition=bottom;verticalAlign=top;align=center;html=1;fontSize=12;fontStyle=0;aspect=fixed;shape=mxgraph.aws4.resourceIcon;resIcon=mxgraph.aws4.elastic_load_balancing;" vertex="1" parent="1">
          <mxGeometry x="381.75" y="420" width="40" height="40" as="geometry"/>
        </mxCell>
        <mxCell id="x8dnCS3WgVs4PBsWVb6L-123" style="edgeStyle=orthogonalEdgeStyle;rounded=0;orthogonalLoop=1;jettySize=auto;html=1;startArrow=classic;startFill=1;" edge="1" parent="1" source="x8dnCS3WgVs4PBsWVb6L-100" target="x8dnCS3WgVs4PBsWVb6L-112">
          <mxGeometry relative="1" as="geometry">
            <Array as="points">
              <mxPoint x="494" y="890"/>
              <mxPoint x="305" y="890"/>
            </Array>
          </mxGeometry>
        </mxCell>
        <mxCell id="x8dnCS3WgVs4PBsWVb6L-100" value="APP" style="outlineConnect=0;fontColor=#232F3E;gradientColor=#F78E04;gradientDirection=north;fillColor=#D05C17;strokeColor=#ffffff;dashed=0;verticalLabelPosition=bottom;verticalAlign=top;align=center;html=1;fontSize=12;fontStyle=0;aspect=fixed;shape=mxgraph.aws4.resourceIcon;resIcon=mxgraph.aws4.ec2;" vertex="1" parent="1">
          <mxGeometry x="475" y="796" width="38" height="38" as="geometry"/>
        </mxCell>
        <mxCell id="x8dnCS3WgVs4PBsWVb6L-122" style="edgeStyle=orthogonalEdgeStyle;rounded=0;orthogonalLoop=1;jettySize=auto;html=1;startArrow=classic;startFill=1;" edge="1" parent="1" source="x8dnCS3WgVs4PBsWVb6L-101" target="x8dnCS3WgVs4PBsWVb6L-112">
          <mxGeometry relative="1" as="geometry"/>
        </mxCell>
        <mxCell id="x8dnCS3WgVs4PBsWVb6L-101" value="APP" style="outlineConnect=0;fontColor=#232F3E;gradientColor=#F78E04;gradientDirection=north;fillColor=#D05C17;strokeColor=#ffffff;dashed=0;verticalLabelPosition=bottom;verticalAlign=top;align=center;html=1;fontSize=12;fontStyle=0;aspect=fixed;shape=mxgraph.aws4.resourceIcon;resIcon=mxgraph.aws4.ec2;" vertex="1" parent="1">
          <mxGeometry x="286" y="796" width="38" height="38" as="geometry"/>
        </mxCell>
        <mxCell id="x8dnCS3WgVs4PBsWVb6L-116" style="edgeStyle=orthogonalEdgeStyle;rounded=0;orthogonalLoop=1;jettySize=auto;html=1;startArrow=classic;startFill=1;" edge="1" parent="1" source="x8dnCS3WgVs4PBsWVb6L-102" target="x8dnCS3WgVs4PBsWVb6L-104">
          <mxGeometry relative="1" as="geometry"/>
        </mxCell>
        <mxCell id="x8dnCS3WgVs4PBsWVb6L-102" value="WEB" style="outlineConnect=0;fontColor=#232F3E;gradientColor=#F78E04;gradientDirection=north;fillColor=#D05C17;strokeColor=#ffffff;dashed=0;verticalLabelPosition=bottom;verticalAlign=top;align=center;html=1;fontSize=12;fontStyle=0;aspect=fixed;shape=mxgraph.aws4.resourceIcon;resIcon=mxgraph.aws4.ec2;" vertex="1" parent="1">
          <mxGeometry x="286" y="591" width="38" height="38" as="geometry"/>
        </mxCell>
        <mxCell id="x8dnCS3WgVs4PBsWVb6L-117" style="edgeStyle=orthogonalEdgeStyle;rounded=0;orthogonalLoop=1;jettySize=auto;html=1;startArrow=classic;startFill=1;" edge="1" parent="1" source="x8dnCS3WgVs4PBsWVb6L-103" target="x8dnCS3WgVs4PBsWVb6L-104">
          <mxGeometry relative="1" as="geometry"/>
        </mxCell>
        <mxCell id="x8dnCS3WgVs4PBsWVb6L-103" value="WEB" style="outlineConnect=0;fontColor=#232F3E;gradientColor=#F78E04;gradientDirection=north;fillColor=#D05C17;strokeColor=#ffffff;dashed=0;verticalLabelPosition=bottom;verticalAlign=top;align=center;html=1;fontSize=12;fontStyle=0;aspect=fixed;shape=mxgraph.aws4.resourceIcon;resIcon=mxgraph.aws4.ec2;" vertex="1" parent="1">
          <mxGeometry x="475" y="591" width="38" height="38" as="geometry"/>
        </mxCell>
        <mxCell id="x8dnCS3WgVs4PBsWVb6L-118" style="edgeStyle=orthogonalEdgeStyle;rounded=0;orthogonalLoop=1;jettySize=auto;html=1;startArrow=classic;startFill=1;" edge="1" parent="1" source="x8dnCS3WgVs4PBsWVb6L-104" target="x8dnCS3WgVs4PBsWVb6L-101">
          <mxGeometry relative="1" as="geometry"/>
        </mxCell>
        <mxCell id="x8dnCS3WgVs4PBsWVb6L-119" style="edgeStyle=orthogonalEdgeStyle;rounded=0;orthogonalLoop=1;jettySize=auto;html=1;startArrow=classic;startFill=1;" edge="1" parent="1" source="x8dnCS3WgVs4PBsWVb6L-104" target="x8dnCS3WgVs4PBsWVb6L-100">
          <mxGeometry relative="1" as="geometry"/>
        </mxCell>
        <mxCell id="x8dnCS3WgVs4PBsWVb6L-104" value="NLB&lt;br&gt;" style="outlineConnect=0;fontColor=#232F3E;gradientColor=#F78E04;gradientDirection=north;fillColor=#D05C17;strokeColor=#ffffff;dashed=0;verticalLabelPosition=bottom;verticalAlign=top;align=center;html=1;fontSize=12;fontStyle=0;aspect=fixed;shape=mxgraph.aws4.resourceIcon;resIcon=mxgraph.aws4.elastic_load_balancing;" vertex="1" parent="1">
          <mxGeometry x="380" y="675" width="40" height="40" as="geometry"/>
        </mxCell>
        <mxCell id="x8dnCS3WgVs4PBsWVb6L-109" value="S3&lt;br&gt;" style="outlineConnect=0;fontColor=#232F3E;gradientColor=#60A337;gradientDirection=north;fillColor=#277116;strokeColor=#ffffff;dashed=0;verticalLabelPosition=bottom;verticalAlign=top;align=center;html=1;fontSize=12;fontStyle=0;aspect=fixed;shape=mxgraph.aws4.resourceIcon;resIcon=mxgraph.aws4.s3;" vertex="1" parent="1">
          <mxGeometry x="270" y="250" width="40" height="40" as="geometry"/>
        </mxCell>
        <mxCell id="x8dnCS3WgVs4PBsWVb6L-124" style="edgeStyle=orthogonalEdgeStyle;rounded=0;orthogonalLoop=1;jettySize=auto;html=1;startArrow=classic;startFill=1;dashed=1;" edge="1" parent="1" source="x8dnCS3WgVs4PBsWVb6L-112" target="x8dnCS3WgVs4PBsWVb6L-113">
          <mxGeometry relative="1" as="geometry"/>
        </mxCell>
        <mxCell id="x8dnCS3WgVs4PBsWVb6L-112" value="" style="outlineConnect=0;fontColor=#232F3E;gradientColor=#4D72F3;gradientDirection=north;fillColor=#3334B9;strokeColor=#ffffff;dashed=0;verticalLabelPosition=bottom;verticalAlign=top;align=center;html=1;fontSize=12;fontStyle=0;aspect=fixed;shape=mxgraph.aws4.resourceIcon;resIcon=mxgraph.aws4.database;" vertex="1" parent="1">
          <mxGeometry x="285" y="945" width="40" height="40" as="geometry"/>
        </mxCell>
        <mxCell id="x8dnCS3WgVs4PBsWVb6L-113" value="" style="outlineConnect=0;fontColor=#232F3E;gradientColor=#4D72F3;gradientDirection=north;fillColor=#3334B9;strokeColor=#ffffff;dashed=0;verticalLabelPosition=bottom;verticalAlign=top;align=center;html=1;fontSize=12;fontStyle=0;aspect=fixed;shape=mxgraph.aws4.resourceIcon;resIcon=mxgraph.aws4.database;" vertex="1" parent="1">
          <mxGeometry x="474" y="945" width="40" height="40" as="geometry"/>
        </mxCell>
        <mxCell id="x8dnCS3WgVs4PBsWVb6L-126" value="Bastion" style="outlineConnect=0;fontColor=#232F3E;gradientColor=#F78E04;gradientDirection=north;fillColor=#D05C17;strokeColor=#ffffff;dashed=0;verticalLabelPosition=bottom;verticalAlign=top;align=center;html=1;fontSize=12;fontStyle=0;aspect=fixed;shape=mxgraph.aws4.resourceIcon;resIcon=mxgraph.aws4.ec2;" vertex="1" parent="1">
          <mxGeometry x="250" y="420" width="38" height="38" as="geometry"/>
        </mxCell>
        <mxCell id="x8dnCS3WgVs4PBsWVb6L-129" value="NAT&lt;br&gt;" style="outlineConnect=0;dashed=0;verticalLabelPosition=bottom;verticalAlign=top;align=center;html=1;shape=mxgraph.aws3.vpc_nat_gateway;fillColor=#F58536;gradientColor=none;" vertex="1" parent="1">
          <mxGeometry x="310" y="418" width="40" height="40" as="geometry"/>
        </mxCell>
        <mxCell id="x8dnCS3WgVs4PBsWVb6L-130" value="" style="outlineConnect=0;dashed=0;verticalLabelPosition=bottom;verticalAlign=top;align=center;html=1;shape=mxgraph.aws3.internet_gateway;fillColor=#F58534;gradientColor=none;" vertex="1" parent="1">
          <mxGeometry x="380" y="290" width="40" height="40" as="geometry"/>
        </mxCell>
        <mxCell id="x8dnCS3WgVs4PBsWVb6L-134" style="edgeStyle=orthogonalEdgeStyle;rounded=0;orthogonalLoop=1;jettySize=auto;html=1;startArrow=classic;startFill=1;" edge="1" parent="1" source="x8dnCS3WgVs4PBsWVb6L-131" target="x8dnCS3WgVs4PBsWVb6L-132">
          <mxGeometry relative="1" as="geometry"/>
        </mxCell>
        <mxCell id="x8dnCS3WgVs4PBsWVb6L-131" value="Route53" style="outlineConnect=0;dashed=0;verticalLabelPosition=bottom;verticalAlign=top;align=center;html=1;shape=mxgraph.aws3.route_53;fillColor=#F58536;gradientColor=none;" vertex="1" parent="1">
          <mxGeometry x="381.75" y="90" width="40" height="40" as="geometry"/>
        </mxCell>
        <mxCell id="x8dnCS3WgVs4PBsWVb6L-135" style="edgeStyle=orthogonalEdgeStyle;rounded=0;orthogonalLoop=1;jettySize=auto;html=1;startArrow=classic;startFill=1;" edge="1" parent="1" source="x8dnCS3WgVs4PBsWVb6L-132" target="x8dnCS3WgVs4PBsWVb6L-130">
          <mxGeometry relative="1" as="geometry"/>
        </mxCell>
        <mxCell id="x8dnCS3WgVs4PBsWVb6L-132" value="cloudfront" style="outlineConnect=0;dashed=0;verticalLabelPosition=bottom;verticalAlign=top;align=center;html=1;shape=mxgraph.aws3.cloudfront;fillColor=#F58536;gradientColor=none;" vertex="1" parent="1">
          <mxGeometry x="380" y="170" width="40" height="40" as="geometry"/>
        </mxCell>
        <mxCell id="x8dnCS3WgVs4PBsWVb6L-138" value="IAM" style="outlineConnect=0;dashed=0;verticalLabelPosition=bottom;verticalAlign=top;align=center;html=1;shape=mxgraph.aws3.iam;fillColor=#759C3E;gradientColor=none;" vertex="1" parent="1">
          <mxGeometry x="314.5" y="120" width="31" height="50" as="geometry"/>
        </mxCell>
        <mxCell id="x8dnCS3WgVs4PBsWVb6L-144" value="cloudwatch" style="outlineConnect=0;dashed=0;verticalLabelPosition=bottom;verticalAlign=top;align=center;html=1;shape=mxgraph.aws3.cloudwatch;fillColor=#759C3E;gradientColor=none;" vertex="1" parent="1">
          <mxGeometry x="190" y="120" width="40" height="40" as="geometry"/>
        </mxCell>
        <mxCell id="x8dnCS3WgVs4PBsWVb6L-149" value="NAT&lt;br&gt;" style="outlineConnect=0;dashed=0;verticalLabelPosition=bottom;verticalAlign=top;align=center;html=1;shape=mxgraph.aws3.vpc_nat_gateway;fillColor=#F58536;gradientColor=none;" vertex="1" parent="1">
          <mxGeometry x="460" y="418" width="40" height="40" as="geometry"/>
        </mxCell>
        <mxCell id="x8dnCS3WgVs4PBsWVb6L-151" value="cloudtrail" style="outlineConnect=0;dashed=0;verticalLabelPosition=bottom;verticalAlign=top;align=center;html=1;shape=mxgraph.aws3.cloudtrail;fillColor=#759C3E;gradientColor=none;" vertex="1" parent="1">
          <mxGeometry x="248" y="120" width="40" height="40" as="geometry"/>
        </mxCell>
      </root>
    </mxGraphModel>
  </diagram>
</mxfile>
